{
  "accessors": [
    {
      "bufferView": 2,
      "componentType": 5126,
      "count": 38607,
      "max": [
        0.21732567250728607,
        0.26052826642990112,
        0.31912767887115479
      ],
      "min": [
        -0.2623005211353302,
        -0.31335622072219849,
        -0.16282539069652557
      ],
      "type": "VEC3"
    },
    {
      "bufferView": 2,
      "byteOffset": 463284,
      "componentType": 5126,
      "count": 38607,
      "max": [
        0.99997663497924805,
        0.99999374151229858,
        0.99991112947463989
      ],
      "min": [
        -0.99998611211776733,
        -0.99995696544647217,
        -0.99996048212051392
      ],
      "type": "VEC3"
    },
    {
      "bufferView": 3,
      "componentType": 5126,
      "count": 38607,
      "max": [
        0.99999964237213135,
        0.99994945526123047,
        0.99999016523361206,
        1
      ],
      "min": [
        -0.99999994039535522,
        -0.99986505508422852,
        -0.99999016523361206,
        -1
      ],
      "type": "VEC4"
    },
    {
      "bufferView": 1,
      "componentType": 5126,
      "count": 38607,
      "max": [
        0.987548828125,
        0.999267578125
      ],
      "min": [
        0.000732421875,
        0.078857421875
      ],
      "type": "VEC2"
    },
    {
      "bufferView": 0,
      "componentType": 5125,
      "count": 156336,
      "max": [
        38606
      ],
      "min": [
        0
      ],
      "type": "SCALAR"
    }
  ],
  "asset": {
    "extras": {
      "author": "tipatat (https://sketchfab.com/tipatat)",
      "license": "CC-BY-4.0 (http://creativecommons.org/licenses/by/4.0/)",
      "source": "https://sketchfab.com/models/27c0788205264c7bac3b734e2733413c",
      "title": "Snoop Dogg"
    },
    "generator": "Sketchfab-3.17.1",
    "version": "2.0"
  },
  "bufferViews": [
    {
      "buffer": 0,
      "byteLength": 625344,
      "byteOffset": 0,
      "name": "floatBufferViews",
      "target": 34963
    },
    {
      "buffer": 0,
      "byteLength": 308856,
      "byteOffset": 625344,
      "byteStride": 8,
      "name": "floatBufferViews",
      "target": 34962
    },
    {
      "buffer": 0,
      "byteLength": 926568,
      "byteOffset": 934200,
      "byteStride": 12,
      "name": "floatBufferViews",
      "target": 34962
    },
    {
      "buffer": 0,
      "byteLength": 617712,
      "byteOffset": 1860768,
      "byteStride": 16,
      "name": "floatBufferViews",
      "target": 34962
    }
  ],
  "buffers": [
    {
      "byteLength": 2478480,
      "uri": "../bins/scene.bin"
    }
  ],
  "extensionsUsed": [
    "KHR_materials_unlit"
  ],
  "images": [
    {
      "uri": "../img_for_gtlf/material_0_baseColor.jpeg"
    }
  ],
  "materials": [
    {
      "doubleSided": true,
      "emissiveFactor": [
        0,
        0,
        0
      ],
      "extensions": {
        "KHR_materials_unlit": {}
      },
      "name": "material_0",
      "pbrMetallicRoughness": {
        "baseColorFactor": [
          1,
          1,
          1,
          1
        ],
        "baseColorTexture": {
          "index": 0,
          "texCoord": 0
        },
        "metallicFactor": 0,
        "roughnessFactor": 1
      }
    }
  ],
  "meshes": [
    {
      "primitives": [
        {
          "attributes": {
            "NORMAL": 1,
            "POSITION": 0,
            "TANGENT": 2,
            "TEXCOORD_0": 3
          },
          "indices": 4,
          "material": 0,
          "mode": 4
        }
      ]
    }
  ],
  "nodes": [
    {
      "children": [
        1
      ],
      "name": "RootNode (gltf orientation matrix)",
      "rotation": [
        -0.70710678118654746,
        -0,
        -0,
        0.70710678118654757
      ]
    },
    {
      "children": [
        2
      ],
      "name": "RootNode (model correction matrix)"
    },
    {
      "children": [
        3
      ],
      "name": "model_mesh.obj.cleaner.gles"
    },
    {
      "mesh": 0,
      "name": ""
    }
  ],
  "samplers": [
    {
      "magFilter": 9729,
      "minFilter": 9987,
      "wrapS": 10497,
      "wrapT": 10497
    }
  ],
  "scene": 0,
  "scenes": [
    {
      "name": "OSG_Scene",
      "nodes": [
        0
      ]
    }
  ],
  "textures": [
    {
      "sampler": 0,
      "source": 0
    }
  ]
}

