{
  "accessors": [
    {
      "bufferView": 2,
      "componentType": 5126,
      "count": 13630,
      "max": [
        0.03740224242210388,
        0.09900170564651489,
        0.03292723000049591
      ],
      "min": [
        -0.01563253253698349,
        -0.030982641503214836,
        -0.028964851051568985
      ],
      "type": "VEC3"
    },
    {
      "bufferView": 2,
      "byteOffset": 163560,
      "componentType": 5126,
      "count": 13630,
      "max": [
        0.9999129176139832,
        0.9999224543571472,
        0.9996631741523743
      ],
      "min": [
        -0.9999527335166931,
        -0.9996534585952759,
        -0.9999343752861023
      ],
      "type": "VEC3"
    },
    {
      "bufferView": 1,
      "componentType": 5126,
      "count": 13630,
      "max": [
        0.9998957514762878,
        0.9860897660255432
      ],
      "min": [
        0.00011386286496417597,
        0.0006312483455985785
      ],
      "type": "VEC2"
    },
    {
      "bufferView": 1,
      "byteOffset": 109040,
      "componentType": 5126,
      "count": 13630,
      "max": [
        0.9998957514762878,
        0.9860897660255432
      ],
      "min": [
        0.00011386286496417597,
        0.0006312483455985785
      ],
      "type": "VEC2"
    },
    {
      "bufferView": 1,
      "byteOffset": 218080,
      "componentType": 5126,
      "count": 13630,
      "max": [
        0.9998957514762878,
        0.9860897660255432
      ],
      "min": [
        0.00011386286496417597,
        0.0006312483455985785
      ],
      "type": "VEC2"
    },
    {
      "bufferView": 0,
      "componentType": 5125,
      "count": 70254,
      "type": "SCALAR"
    }
  ],
  "asset": {
    "extras": {
      "author": "naundob (https://sketchfab.com/naundob)",
      "license": "CC-BY-NC-SA-4.0 (http://creativecommons.org/licenses/by-nc-sa/4.0/)",
      "source": "https://sketchfab.com/3d-models/crocodile-gena-e39180c1d87b41f6a0937485c50d78d1",
      "title": "Crocodile Gena"
    },
    "generator": "Sketchfab-11.57.0",
    "version": "2.0"
  },
  "bufferViews": [
    {
      "buffer": 0,
      "byteLength": 281016,
      "name": "floatBufferViews",
      "target": 34963
    },
    {
      "buffer": 0,
      "byteLength": 327120,
      "byteOffset": 281016,
      "byteStride": 8,
      "name": "floatBufferViews",
      "target": 34962
    },
    {
      "buffer": 0,
      "byteLength": 327120,
      "byteOffset": 608136,
      "byteStride": 12,
      "name": "floatBufferViews",
      "target": 34962
    }
  ],
  "buffers": [
    {
      "byteLength": 935256,
      "uri": "scene.bin"
    }
  ],
  "images": [
    {
      "uri": "textures/material_0_baseColor.jpeg"
    },
    {
      "uri": "textures/material_0_metallicRoughness.png"
    }
  ],
  "materials": [
    {
      "name": "material_0",
      "occlusionTexture": {
        "index": 1
      },
      "pbrMetallicRoughness": {
        "baseColorTexture": {
          "index": 0
        },
        "metallicFactor": 0.0,
        "metallicRoughnessTexture": {
          "index": 1
        }
      }
    }
  ],
  "meshes": [
    {
      "name": "Object_0",
      "primitives": [
        {
          "attributes": {
            "NORMAL": 1,
            "POSITION": 0,
            "TEXCOORD_0": 2,
            "TEXCOORD_1": 3,
            "TEXCOORD_2": 4
          },
          "indices": 5,
          "material": 0,
          "mode": 4
        }
      ]
    }
  ],
  "nodes": [
    {
      "children": [
        1
      ],
      "matrix": [
        13.089746475219727,
        0.0,
        0.0,
        0.0,
        0.0,
        2.9065075846589853e-15,
        -13.089746475219727,
        0.0,
        0.0,
        13.089746475219727,
        2.9065075846589853e-15,
        0.0,
        0.0,
        -7.703719777548943e-34,
        3.469446951953614e-18,
        1.0
      ],
      "name": "Sketchfab_model"
    },
    {
      "children": [
        2
      ],
      "name": "root"
    },
    {
      "children": [
        3
      ],
      "matrix": [
        1.0,
        0.0,
        0.0,
        0.0,
        0.0,
        2.220446049250313e-16,
        1.0,
        0.0,
        0.0,
        -1.0,
        2.220446049250313e-16,
        0.0,
        0.0,
        0.0,
        0.0,
        1.0
      ],
      "name": "GLTF_SceneRootNode"
    },
    {
      "children": [
        4
      ],
      "name": "_0"
    },
    {
      "mesh": 0,
      "name": "Object_4"
    }
  ],
  "samplers": [
    {
      "magFilter": 9729,
      "minFilter": 9987,
      "wrapS": 10497,
      "wrapT": 10497
    }
  ],
  "scene": 0,
  "scenes": [
    {
      "name": "Sketchfab_Scene",
      "nodes": [
        0
      ]
    }
  ],
  "textures": [
    {
      "sampler": 0,
      "source": 0
    },
    {
      "sampler": 0,
      "source": 1
    }
  ]
}
