{
  "accessors": [
    {
      "bufferView": 2,
      "componentType": 5126,
      "count": 10357,
      "max": [
        0.4997180998325348,
        0.49985507130622864,
        0.2384018898010254
      ],
      "min": [
        -0.49985185265541077,
        -0.4999348819255829,
        -0.2384018898010254
      ],
      "type": "VEC3"
    },
    {
      "bufferView": 2,
      "byteOffset": 124284,
      "componentType": 5126,
      "count": 10357,
      "max": [
        1.0,
        0.9998029470443726,
        0.999995768070221
      ],
      "min": [
        -1.0,
        -0.9999590516090393,
        -0.999995768070221
      ],
      "type": "VEC3"
    },
    {
      "bufferView": 1,
      "componentType": 5126,
      "count": 10357,
      "max": [
        0.9998382925987244,
        0.8772557973861694
      ],
      "min": [
        3.609184204833582e-05,
        0.00011047720909118652
      ],
      "type": "VEC2"
    },
    {
      "bufferView": 1,
      "byteOffset": 82856,
      "componentType": 5126,
      "count": 10357,
      "max": [
        0.9998382925987244,
        0.8772557973861694
      ],
      "min": [
        3.609184204833582e-05,
        0.00011047720909118652
      ],
      "type": "VEC2"
    },
    {
      "bufferView": 1,
      "byteOffset": 165712,
      "componentType": 5126,
      "count": 10357,
      "max": [
        0.9998382925987244,
        0.8772557973861694
      ],
      "min": [
        3.609184204833582e-05,
        0.00011047720909118652
      ],
      "type": "VEC2"
    },
    {
      "bufferView": 0,
      "componentType": 5125,
      "count": 59148,
      "type": "SCALAR"
    }
  ],
  "asset": {
    "extras": {
      "author": "Michael Aens (https://sketchfab.com/mihyud2008)",
      "license": "CC-BY-4.0 (http://creativecommons.org/licenses/by/4.0/)",
      "source": "https://sketchfab.com/3d-models/54b7e359d1784498a22181d03150356d",
      "title": "Маша из Маши и Медведь"
    },
    "generator": "Sketchfab-10.63.0",
    "version": "2.0"
  },
  "bufferViews": [
    {
      "buffer": 0,
      "byteLength": 236592,
      "name": "floatBufferViews",
      "target": 34963
    },
    {
      "buffer": 0,
      "byteLength": 248568,
      "byteOffset": 236592,
      "byteStride": 8,
      "name": "floatBufferViews",
      "target": 34962
    },
    {
      "buffer": 0,
      "byteLength": 248568,
      "byteOffset": 485160,
      "byteStride": 12,
      "name": "floatBufferViews",
      "target": 34962
    }
  ],
  "buffers": [
    {
      "byteLength": 733728,
      "uri": "scene.bin"
    }
  ],
  "extensionsRequired": [
    "KHR_materials_pbrSpecularGlossiness"
  ],
  "extensionsUsed": [
    "KHR_materials_pbrSpecularGlossiness"
  ],
  "images": [
    {
      "uri": "textures/material_diffuse.png"
    },
    {
      "uri": "textures/material_specularGlossiness.png"
    }
  ],
  "materials": [
    {
      "doubleSided": true,
      "extensions": {
        "KHR_materials_pbrSpecularGlossiness": {
          "diffuseFactor": [
            1.0,
            1.0,
            1.0,
            1.0
          ],
          "diffuseTexture": {
            "index": 0
          },
          "glossinessFactor": 1.0,
          "specularFactor": [
            1.0,
            1.0,
            1.0
          ],
          "specularGlossinessTexture": {
            "index": 1,
            "texCoord": 1
          }
        }
      },
      "name": "material"
    }
  ],
  "meshes": [
    {
      "name": "Object_0",
      "primitives": [
        {
          "attributes": {
            "NORMAL": 1,
            "POSITION": 0,
            "TEXCOORD_0": 2,
            "TEXCOORD_1": 3,
            "TEXCOORD_2": 4
          },
          "indices": 5,
          "material": 0,
          "mode": 4
        }
      ]
    }
  ],
  "nodes": [
    {
      "children": [
        1
      ],
      "matrix": [
        1.0,
        0.0,
        0.0,
        0.0,
        0.0,
        2.220446049250313e-16,
        -1.0,
        0.0,
        0.0,
        1.0,
        2.220446049250313e-16,
        0.0,
        0.0,
        0.0,
        0.0,
        1.0
      ],
      "name": "Sketchfab_model"
    },
    {
      "children": [
        2
      ],
      "name": "root"
    },
    {
      "children": [
        3
      ],
      "matrix": [
        1.0,
        0.0,
        0.0,
        0.0,
        0.0,
        2.220446049250313e-16,
        1.0,
        0.0,
        0.0,
        -1.0,
        2.220446049250313e-16,
        0.0,
        0.0,
        0.0,
        0.0,
        1.0
      ],
      "name": "GLTF_SceneRootNode"
    },
    {
      "children": [
        4
      ],
      "name": "root_1"
    },
    {
      "children": [
        5
      ],
      "matrix": [
        0.44231677055358887,
        0.0,
        0.0,
        0.0,
        0.0,
        0.866420328617096,
        0.0,
        0.0,
        0.0,
        0.0,
        0.433210164308548,
        0.0,
        -0.019825277850031853,
        -0.05788083001971245,
        0.200010746717453,
        1.0
      ],
      "name": "_0"
    },
    {
      "mesh": 0,
      "name": "Object_5"
    }
  ],
  "samplers": [
    {
      "magFilter": 9729,
      "minFilter": 9987,
      "wrapS": 10497,
      "wrapT": 10497
    }
  ],
  "scene": 0,
  "scenes": [
    {
      "name": "Sketchfab_Scene",
      "nodes": [
        0
      ]
    }
  ],
  "textures": [
    {
      "sampler": 0,
      "source": 0
    },
    {
      "sampler": 0,
      "source": 1
    }
  ]
}
