{
  "accessors": [
    {
      "bufferView": 2,
      "componentType": 5126,
      "count": 1496,
      "max": [
        0.63240402936935425,
        1,
        0.8771979808807373
      ],
      "min": [
        -0.63240402936935425,
        -1,
        -0.8771979808807373
      ],
      "type": "VEC3"
    },
    {
      "bufferView": 2,
      "byteOffset": 17952,
      "componentType": 5126,
      "count": 1496,
      "max": [
        0.99843025207519531,
        0.99594461917877197,
        0.99958401918411255
      ],
      "min": [
        -0.99795776605606079,
        -0.99997764825820923,
        -0.99981689453125
      ],
      "type": "VEC3"
    },
    {
      "bufferView": 3,
      "componentType": 5126,
      "count": 1496,
      "max": [
        1,
        0.99095499515533447,
        0.99832665920257568,
        1
      ],
      "min": [
        -0.99998962879180908,
        -0.99096441268920898,
        -0.99865126609802246,
        1
      ],
      "type": "VEC4"
    },
    {
      "bufferView": 1,
      "componentType": 5126,
      "count": 1496,
      "max": [
        0.91508901119232178,
        0.9998289942741394
      ],
      "min": [
        0.00017051599570550025,
        0.0023545599542558193
      ],
      "type": "VEC2"
    },
    {
      "bufferView": 0,
      "componentType": 5125,
      "count": 8178,
      "max": [
        1495
      ],
      "min": [
        0
      ],
      "type": "SCALAR"
    },
    {
      "bufferView": 2,
      "byteOffset": 35904,
      "componentType": 5126,
      "count": 680,
      "max": [
        0.49658399820327759,
        0.58126801252365112,
        0.77660000324249268
      ],
      "min": [
        -0.49658399820327759,
        -0.27703601121902466,
        0.37019100785255432
      ],
      "type": "VEC3"
    },
    {
      "bufferView": 2,
      "byteOffset": 44064,
      "componentType": 5126,
      "count": 680,
      "max": [
        0.99402201175689697,
        0.99966186285018921,
        0.98895978927612305
      ],
      "min": [
        -0.99401837587356567,
        -0.99880409240722656,
        -0.5722661018371582
      ],
      "type": "VEC3"
    },
    {
      "bufferView": 3,
      "byteOffset": 23936,
      "componentType": 5126,
      "count": 680,
      "max": [
        0.99623870849609375,
        0.960091233253479,
        0.99966555833816528,
        1
      ],
      "min": [
        -0.97052830457687378,
        -0.82448601722717285,
        -0.99875986576080322,
        1
      ],
      "type": "VEC4"
    },
    {
      "bufferView": 1,
      "byteOffset": 11968,
      "componentType": 5126,
      "count": 680,
      "max": [
        0.9980810284614563,
        0.99240601062774658
      ],
      "min": [
        0.18595899641513824,
        0.59036201238632202
      ],
      "type": "VEC2"
    },
    {
      "bufferView": 0,
      "byteOffset": 32712,
      "componentType": 5125,
      "count": 3672,
      "max": [
        679
      ],
      "min": [
        0
      ],
      "type": "SCALAR"
    }
  ],
  "asset": {
    "extras": {
      "author": "Al (https://sketchfab.com/lightningocelot)",
      "license": "CC-BY-4.0 (http://creativecommons.org/licenses/by/4.0/)",
      "source": "https://sketchfab.com/models/4e342baf5cf14e329bb5ba18727f9834",
      "title": "Deadpool Bust"
    },
    "generator": "Sketchfab-3.30.3",
    "version": "2.0"
  },
  "bufferViews": [
    {
      "buffer": 0,
      "byteLength": 47400,
      "byteOffset": 0,
      "name": "floatBufferViews",
      "target": 34963
    },
    {
      "buffer": 0,
      "byteLength": 17408,
      "byteOffset": 47400,
      "byteStride": 8,
      "name": "floatBufferViews",
      "target": 34962
    },
    {
      "buffer": 0,
      "byteLength": 52224,
      "byteOffset": 64808,
      "byteStride": 12,
      "name": "floatBufferViews",
      "target": 34962
    },
    {
      "buffer": 0,
      "byteLength": 34816,
      "byteOffset": 117032,
      "byteStride": 16,
      "name": "floatBufferViews",
      "target": 34962
    }
  ],
  "buffers": [
    {
      "byteLength": 151848,
      "uri": "scene.bin"
    }
  ],
  "images": [
    {
      "uri": "textures/material_baseColor.jpeg"
    },
    {
      "uri": "textures/material_normal.png"
    },
    {
      "uri": "textures/material_metallicRoughness.png"
    }
  ],
  "materials": [
    {
      "doubleSided": false,
      "name": "material",
      "normalTexture": {
        "index": 1,
        "scale": 1,
        "texCoord": 0
      },
      "occlusionTexture": {
        "index": 2,
        "strength": 1,
        "texCoord": 0
      },
      "pbrMetallicRoughness": {
        "baseColorFactor": [
          1,
          1,
          1,
          1
        ],
        "baseColorTexture": {
          "index": 0,
          "texCoord": 0
        },
        "metallicFactor": 1,
        "metallicRoughnessTexture": {
          "index": 2,
          "texCoord": 0
        },
        "roughnessFactor": 1
      }
    }
  ],
  "meshes": [
    {
      "name": "defaultMaterial",
      "primitives": [
        {
          "attributes": {
            "NORMAL": 1,
            "POSITION": 0,
            "TANGENT": 2,
            "TEXCOORD_0": 3
          },
          "indices": 4,
          "material": 0,
          "mode": 4
        }
      ]
    },
    {
      "name": "defaultMaterial",
      "primitives": [
        {
          "attributes": {
            "NORMAL": 6,
            "POSITION": 5,
            "TANGENT": 7,
            "TEXCOORD_0": 8
          },
          "indices": 9,
          "material": 0,
          "mode": 4
        }
      ]
    }
  ],
  "nodes": [
    {
      "children": [
        1
      ],
      "name": "RootNode (gltf orientation matrix)",
      "rotation": [
        -0.70710678118654746,
        -0,
        -0,
        0.70710678118654757
      ]
    },
    {
      "children": [
        2
      ],
      "name": "RootNode (model correction matrix)"
    },
    {
      "children": [
        3,
        5
      ],
      "matrix": [
        1,
        0,
        0,
        0,
        0,
        -4.3711390063094768e-08,
        0.999999999999999,
        0,
        0,
        -0.999999999999999,
        -4.3711390063094768e-08,
        0,
        0,
        0,
        0,
        1
      ],
      "name": "Collada visual scene group"
    },
    {
      "children": [
        4
      ],
      "name": "DPM1_low"
    },
    {
      "mesh": 0,
      "name": "defaultMaterial"
    },
    {
      "children": [
        6
      ],
      "name": "Dpm2_low"
    },
    {
      "mesh": 1,
      "name": "defaultMaterial"
    }
  ],
  "samplers": [
    {
      "magFilter": 9729,
      "minFilter": 9987,
      "wrapS": 10497,
      "wrapT": 10497
    }
  ],
  "scene": 0,
  "scenes": [
    {
      "name": "OSG_Scene",
      "nodes": [
        0
      ]
    }
  ],
  "textures": [
    {
      "sampler": 0,
      "source": 0
    },
    {
      "sampler": 0,
      "source": 1
    },
    {
      "sampler": 0,
      "source": 2
    }
  ]
}

