{
  "accessors": [
    {
      "bufferView": 2,
      "componentType": 5126,
      "count": 13092,
      "max": [
        0.63518297672271729,
        1,
        0.82668799161911011
      ],
      "min": [
        -0.63518297672271729,
        -1,
        -0.82668799161911011
      ],
      "type": "VEC3"
    },
    {
      "bufferView": 2,
      "byteOffset": 157104,
      "componentType": 5126,
      "count": 13092,
      "max": [
        0.9999883770942688,
        0.99998950958251953,
        0.99999964237213135
      ],
      "min": [
        -0.9999883770942688,
        -0.99927324056625366,
        -0.99992102384567261
      ],
      "type": "VEC3"
    },
    {
      "bufferView": 3,
      "componentType": 5126,
      "count": 13092,
      "max": [
        0.99999278783798218,
        0.99950456619262695,
        0.99999970197677612,
        1
      ],
      "min": [
        -1,
        -0.99997812509536743,
        -0.99999380111694336,
        1
      ],
      "type": "VEC4"
    },
    {
      "bufferView": 1,
      "componentType": 5126,
      "count": 13092,
      "max": [
        0.99317097663879395,
        0.98532301187515259
      ],
      "min": [
        0,
        0
      ],
      "type": "VEC2"
    },
    {
      "bufferView": 0,
      "componentType": 5125,
      "count": 75732,
      "max": [
        13091
      ],
      "min": [
        0
      ],
      "type": "SCALAR"
    }
  ],
  "asset": {
    "extras": {
      "author": "xplusn (https://sketchfab.com/xplusn)",
      "license": "CC-BY-4.0 (http://creativecommons.org/licenses/by/4.0/)",
      "source": "https://sketchfab.com/3d-models/an-attempt-zbrush-creation-of-elon-musk-3a82b4bcb25947c294d2daee4d97b3ec",
      "title": "An attempt zBrush creation of Elon Musk"
    },
    "generator": "Sketchfab-7.91.0",
    "version": "2.0"
  },
  "bufferViews": [
    {
      "buffer": 0,
      "byteLength": 302928,
      "byteOffset": 0,
      "name": "floatBufferViews",
      "target": 34963
    },
    {
      "buffer": 0,
      "byteLength": 104736,
      "byteOffset": 302928,
      "byteStride": 8,
      "name": "floatBufferViews",
      "target": 34962
    },
    {
      "buffer": 0,
      "byteLength": 314208,
      "byteOffset": 407664,
      "byteStride": 12,
      "name": "floatBufferViews",
      "target": 34962
    },
    {
      "buffer": 0,
      "byteLength": 209472,
      "byteOffset": 721872,
      "byteStride": 16,
      "name": "floatBufferViews",
      "target": 34962
    }
  ],
  "buffers": [
    {
      "byteLength": 931344,
      "uri": "scene.bin"
    }
  ],
  "images": [
    {
      "uri": "textures/LeHead_baseColor.jpeg"
    },
    {
      "uri": "textures/LeHead_metallicRoughness.png"
    },
    {
      "uri": "textures/LeHead_normal.png"
    }
  ],
  "materials": [
    {
      "doubleSided": true,
      "name": "LeHead",
      "normalTexture": {
        "index": 2,
        "scale": 1,
        "texCoord": 0
      },
      "occlusionTexture": {
        "index": 1,
        "strength": 1,
        "texCoord": 0
      },
      "pbrMetallicRoughness": {
        "baseColorFactor": [
          1,
          1,
          1,
          1
        ],
        "baseColorTexture": {
          "index": 0,
          "texCoord": 0
        },
        "metallicFactor": 1,
        "metallicRoughnessTexture": {
          "index": 1,
          "texCoord": 0
        },
        "roughnessFactor": 1
      }
    }
  ],
  "meshes": [
    {
      "name": "defaultMaterial",
      "primitives": [
        {
          "attributes": {
            "NORMAL": 1,
            "POSITION": 0,
            "TANGENT": 2,
            "TEXCOORD_0": 3
          },
          "indices": 4,
          "material": 0,
          "mode": 4
        }
      ]
    }
  ],
  "nodes": [
    {
      "children": [
        1
      ],
      "name": "RootNode (gltf orientation matrix)",
      "rotation": [
        -0.70710678118654746,
        -0,
        -0,
        0.70710678118654757
      ]
    },
    {
      "children": [
        2
      ],
      "name": "RootNode (model correction matrix)"
    },
    {
      "children": [
        3
      ],
      "matrix": [
        1,
        0,
        0,
        0,
        0,
        -4.3711390063094768e-08,
        0.999999999999999,
        0,
        0,
        -0.999999999999999,
        -4.3711390063094768e-08,
        0,
        0,
        0,
        0,
        1
      ],
      "name": "Collada visual scene group"
    },
    {
      "children": [
        4
      ],
      "name": "LowPolyMerged"
    },
    {
      "mesh": 0,
      "name": "defaultMaterial"
    }
  ],
  "samplers": [
    {
      "magFilter": 9729,
      "minFilter": 9987,
      "wrapS": 10497,
      "wrapT": 10497
    }
  ],
  "scene": 0,
  "scenes": [
    {
      "name": "OSG_Scene",
      "nodes": [
        0
      ]
    }
  ],
  "textures": [
    {
      "sampler": 0,
      "source": 0
    },
    {
      "sampler": 0,
      "source": 1
    },
    {
      "sampler": 0,
      "source": 2
    }
  ]
}

